<svg version="1.1" xmlns="http://www.w3.org/2000/svg" xmlns:xlink="http://www.w3.org/1999/xlink" width="24" height="24" viewBox="0,0,256,256"><g fill-opacity="0.8" fill="#ffffff" fill-rule="nonzero" stroke="none" stroke-width="1" stroke-linecap="butt" stroke-linejoin="miter" stroke-miterlimit="10" stroke-dasharray="" stroke-dashoffset="0" font-family="none" font-weight="none" font-size="none" text-anchor="none" style="mix-blend-mode: normal"><g transform="scale(10.66667,10.66667)"><path d="M3,2c-0.55228,0 -1,0.44772 -1,1v0.86944c0,0.55228 0.44772,1 1,1h18c0.5523,0 1,-0.44771 1,-1v-0.86944c0,-0.55228 -0.4477,-1 -1,-1zM3,10.5222c-0.55228,0 -1,0.4478 -1,1v0.8695c0,0.5523 0.44772,1 1,1h18c0.5523,0 1,-0.4477 1,-1v-0.8695c0,-0.5522 -0.4477,-1 -1,-1zM3,19.1306c-0.55228,0 -1,0.4477 -1,1v0.8694c0,0.5523 0.44772,1 1,1h18c0.5523,0 1,-0.4477 1,-1v-0.8694c0,-0.5523 -0.4477,-1 -1,-1z"></path></g></g></svg>